<?xml version="1.0" standalone="no"?><!DOCTYPE svg PUBLIC "-//W3C//DTD SVG 1.1//EN" "http://www.w3.org/Graphics/SVG/1.1/DTD/svg11.dtd"><svg t="1607561726395" class="icon" viewBox="0 0 1024 1024" version="1.1" xmlns="http://www.w3.org/2000/svg" p-id="42673" xmlns:xlink="http://www.w3.org/1999/xlink" width="200" height="200"><defs><style type="text/css"></style></defs><path d="M512 162.432a320 320 0 0 1 320 320v309.184h32a96 96 0 0 1 0 192h-704a96 96 0 0 1 0-192H192V482.432a320 320 0 0 1 306.112-319.744z m352 693.248h-704a32 32 0 0 0-5.76 63.488l5.76 0.512h704a32 32 0 0 0 5.76-63.488l-5.76-0.512zM512 226.432a256 256 0 0 0-256 256v309.056h512v-309.12a256 256 0 0 0-256-256z m62.848 65.344l-46.784 201.344 83.776 30.208-179.968 222.912 43.776-190.848-79.616-28.672 178.816-234.88z m424.064 62.016a32 32 0 0 1-20.48 40.32l-68.992 22.4a32 32 0 0 1-19.776-60.864l68.928-22.4a32 32 0 0 1 40.32 20.48zM65.408 333.248l68.928 22.4a32 32 0 0 1-19.84 60.8l-68.864-22.4a32 32 0 0 1 19.776-60.8z m747.52-235.52a32 32 0 0 1 7.04 44.8l-42.56 58.56a32 32 0 1 1-51.776-37.568l42.624-58.688a32 32 0 0 1 44.672-7.04z m-557.184 7.104l42.624 58.688a32 32 0 0 1-51.84 37.568l-42.56-58.624a32 32 0 0 1 51.84-37.632zM512 0a32 32 0 0 1 32 32v72.448a32 32 0 1 1-64 0V32A32 32 0 0 1 512 0z" fill="#FFFFFF" p-id="42674"></path></svg>
