<?xml version="1.0" standalone="no"?><!DOCTYPE svg PUBLIC "-//W3C//DTD SVG 1.1//EN" "http://www.w3.org/Graphics/SVG/1.1/DTD/svg11.dtd"><svg t="1608089734685" class="icon" viewBox="0 0 1024 1024" version="1.1" xmlns="http://www.w3.org/2000/svg" p-id="1085" xmlns:xlink="http://www.w3.org/1999/xlink" width="64" height="64"><defs><style type="text/css"></style></defs><path d="M772.425 124.088c10.799 0 19.998 11.799 19.998 25.697v750.227H232.477V149.885c0-13.998 9.2-25.697 19.998-25.697h519.95m0-60.094h-519.95c-44.195 0-79.992 38.396-79.992 85.691v750.227H64.493v59.994h895.913v-59.994h-107.99V149.885c0-47.395-35.796-85.791-79.991-85.791z" p-id="1086" fill="#ffffff"></path><path d="M682.433 244.076v79.992H342.467v-79.992h339.966m59.994-59.994H282.472v199.98h459.955v-199.98zM392.462 683.033H512.45V443.057zM512.45 613.04v239.977L632.438 613.04z" p-id="1087" fill="#ffffff"></path></svg>