<?xml version="1.0" standalone="no"?><!DOCTYPE svg PUBLIC "-//W3C//DTD SVG 1.1//EN" "http://www.w3.org/Graphics/SVG/1.1/DTD/svg11.dtd"><svg t="1608089747728" class="icon" viewBox="0 0 1024 1024" version="1.1" xmlns="http://www.w3.org/2000/svg" p-id="1299" xmlns:xlink="http://www.w3.org/1999/xlink" width="64" height="64"><defs><style type="text/css"></style></defs><path d="M606.183 485.701c-1.552-1.136-2.997-2.556-4.133-4.129-78.45-78.399-142.034-141.804-148.33-147.946-64.619-64.126-15.588-146.474 60.281-175.402 17.755-6.684 35.82-8.54 54.398-11.148 4.491-0.516 13.935-0.594 23.33-0.645 19.509-0.283 17.96-26.605-0.103-29.34-10.117-1.445-21.42-3.097-27.047-3.511-101.571-9.108-209.852 27.327-312.25 129.779-7.277 7.457-14.916 14.786-22.297 22.27-18.27 74.503-67.302 95.636-90.837 101.571-10.94-9.418-27.612-9.006-38.09 1.42-2.27 2.322-4.129 4.85-5.368 7.69l-21.984 21.727c-10.839 10.788-10.839 28.207 0 38.916l106.94 106.5c10.631 10.684 28.23 10.684 39.017 0l20.645-20.696c3.15-1.29 6.091-3.251 8.671-5.83 9.239-9.161 10.735-23.047 4.542-33.833 0.05-0.076 0.05-0.206 0.103-0.336 0.569-1.73 1.136-3.587 1.858-5.6 0.928-2.53 2.013-5.032 3.097-7.587 0.67-1.057 1.187-2.297 1.807-3.56 1.704-2.942 3.768-5.651 5.73-8.18 4.333-4.853 9.496-9.136 16.308-11.794 43.354-17.058 86.09 11.07 106.99 28.284 1.705 1.496 67.768 67.636 147.353 147.455l33.083 33.134C686.281 771.657 816.138 901.82 816.138 901.82l107.97-98.681S809.018 688.354 692.785 572.02l-86.602-86.32z" p-id="1300" fill="#ffffff"></path><path d="M946.2 186.198l-96.517-68.566c-13.317-9.47-31.79-6.35-41.186 7.149-5.678 7.716-6.295 17.238-3.715 25.701-6.298 1.057-11.873 4.516-16.516 9.29l-0.72-0.541-177.03 249.698c5.162 18.424 3.925 38.372-4.333 56.515l27.558 19.818-11.561 16.336a3705.83 3705.83 0 0 1-20.13-20.026c1.136 1.574 2.581 2.993 4.133 4.129l86.6 86.32c-12.486-12.257-24.981-24.748-37.364-37.134l15.894-22.478 26.32 18.968c14.661-13.988 33.136-22.09 52.544-23.225l174.758-246.24 2.58-3.433-0.826-0.49c3.202-6.039 4.44-12.516 3.407-18.606 8.876-0.233 17.445-4.104 23.017-11.974 9.497-13.237 6.403-31.715-6.913-41.211zM683.185 408.516l-16.206-11.431L798.381 212.03l16 11.484-131.196 185.002z m60.179 42.915l-16.002-11.51 131.304-185.028 16.205 11.406-131.507 185.132zM427.707 775.166l-3.047-2.167-45.778 43.457-39.638 78.551 41.082 29.317 61.884-62.76 26.166-57.496-2.89-1.96 104.41-147.198-33.083-33.134z" p-id="1301" fill="#ffffff"></path></svg>