<?xml version="1.0" standalone="no"?><!DOCTYPE svg PUBLIC "-//W3C//DTD SVG 1.1//EN" "http://www.w3.org/Graphics/SVG/1.1/DTD/svg11.dtd"><svg t="1607742935093" class="icon" viewBox="0 0 1156 1024" version="1.1" xmlns="http://www.w3.org/2000/svg" p-id="5840" xmlns:xlink="http://www.w3.org/1999/xlink" width="225.78125" height="200"><defs><style type="text/css"></style></defs><path d="M56.888889 114.062222h120.888889v21.048889A35.555556 35.555556 0 0 0 213.048889 170.666667H568.888889a35.555556 35.555556 0 0 0 35.555555-35.555556v-21.048889h120.888889v253.724445h56.888889V91.591111a34.417778 34.417778 0 0 0-34.133333-34.417778h-143.644445v-21.902222A35.555556 35.555556 0 0 0 568.888889 0H213.048889a35.555556 35.555556 0 0 0-35.271111 35.271111v21.902222h-142.222222A34.417778 34.417778 0 0 0 0 91.591111v780.231111a34.417778 34.417778 0 0 0 34.133333 34.417778h435.2v-56.888889H56.888889z m177.777778-56.888889h312.888889v56.888889h-312.888889z" fill="#ffffff" p-id="5841"></path><path d="M890.595556 507.733333a28.444444 28.444444 0 0 0-40.391112 0l-188.302222 188.302223-130.844444-131.128889a28.444444 28.444444 0 0 0-40.106667 0 28.444444 28.444444 0 0 0 0 40.391111l151.04 151.04a28.444444 28.444444 0 0 0 40.106667 0l208.497778-208.497778a28.444444 28.444444 0 0 0 0-40.106667zM162.133333 299.52h363.235556v56.888889H162.133333zM156.444444 493.795556h246.613334v56.888888H156.444444zM156.444444 687.786667h165.831112v56.888889H156.444444z" fill="#ffffff" p-id="5842"></path></svg>