<?xml version="1.0" standalone="no"?><!DOCTYPE svg PUBLIC "-//W3C//DTD SVG 1.1//EN" "http://www.w3.org/Graphics/SVG/1.1/DTD/svg11.dtd"><svg t="1702284138369" class="icon" viewBox="0 0 1024 1024" version="1.1" xmlns="http://www.w3.org/2000/svg" p-id="4282" xmlns:xlink="http://www.w3.org/1999/xlink" width="200" height="200"><path d="M218.175448 138.780446c106.922088-66.072058 248.977012-52.721882 341.704166 40.005274 75.650997 75.650997 98.459434 184.14192 68.410224 279.599449L911.43425 741.52958a42.666667 42.666667 0 0 1 0 60.339779l-120.679558 120.679557a42.666667 42.666667 0 0 1-60.339778 0L447.270502 639.404505c-95.442445 30.064295-203.948452 7.240773-279.599449-68.410224-92.74224-92.74224-106.062246-234.797164-40.005273-341.704167l190.85472 190.85472a21.333333 21.333333 0 0 0 28.299356 1.659344l62.210312-61.999122a21.333333 21.333333 0 0 0 1.644259-28.314441l-192.483894-192.725253z m55.090218 326.619222L152.510684 344.644686l-0.015085 0.256444a213.461333 213.461333 0 0 0 269.281347 235.340222l6.290422-1.885618 37.033539-11.660662L745.499858 847.124193a21.333333 21.333333 0 0 0 30.16989 0l60.339778-60.339779a21.333333 21.333333 0 0 0 0-30.169889L555.580405 476.185404l11.675747-37.018454a213.418667 213.418667 0 0 0-226.771973-276.401441l-6.923989 0.890011 120.724812 120.724812 2.519185 2.670036 1.659344 1.870533 2.383422 2.835969a85.333333 85.333333 0 0 1-3.575132 110.165351l-2.986819 3.137669-60.339779 60.339778-2.68512 2.534271-1.855448 1.644259-2.851055 2.398506a85.333333 85.333333 0 0 1-110.150266-3.590217L273.250581 465.384583z" fill="#e6e6e6" p-id="4283"></path></svg>