<?xml version="1.0" standalone="no"?><!DOCTYPE svg PUBLIC "-//W3C//DTD SVG 1.1//EN" "http://www.w3.org/Graphics/SVG/1.1/DTD/svg11.dtd"><svg t="1607743472953" class="icon" viewBox="0 0 1024 1024" version="1.1" xmlns="http://www.w3.org/2000/svg" p-id="15962" xmlns:xlink="http://www.w3.org/1999/xlink" width="200" height="200"><defs><style type="text/css"></style></defs><path d="M824.1 925.2H199.9c-55.9 0-101.4-45.5-101.4-101.4V199.6c0-55.9 45.5-101.4 101.4-101.4h624.2c55.9 0 101.4 45.5 101.4 101.4v624.2c0 55.9-45.5 101.4-101.4 101.4zM199.9 145c-30.1 0-54.6 24.5-54.6 54.6v624.2c0 30.1 24.5 54.6 54.6 54.6h624.2c30.1 0 54.6-24.5 54.6-54.6V199.6c0-30.1-24.5-54.6-54.6-54.6H199.9z" fill="#ffffff" p-id="15963"></path><path d="M824.1 921.3H199.9c-55.9 0-101.4-45.5-101.4-101.4v-31.2c0-55.9 45.5-101.4 101.4-101.4h624.2c55.9 0 101.4 45.5 101.4 101.4v31.2c0 55.9-45.5 101.4-101.4 101.4zM199.9 734c-30.1 0-54.6 24.5-54.6 54.6v31.2c0 30.1 24.5 54.6 54.6 54.6h624.2c30.1 0 54.6-24.5 54.6-54.6v-31.2c0-30.1-24.5-54.6-54.6-54.6H199.9zM479.1 453.4c-6.6 0-13-2.8-17.5-7.9l-76.1-85.9-76.1 85.9c-6.4 7.3-16.7 9.8-25.8 6.4-9.1-3.4-15.1-12.2-15.1-21.9V121.6c0-12.9 10.5-23.4 23.4-23.4h187.3c12.9 0 23.4 10.5 23.4 23.4V430c0 9.7-6 18.4-15.1 21.9-2.8 1.1-5.6 1.5-8.4 1.5zM385.5 301c6.7 0 13.1 2.9 17.5 7.9l52.7 59.5V145H315.3v223.4l52.7-59.5c4.4-5 10.8-7.9 17.5-7.9z" fill="#ffffff" p-id="15964"></path></svg>