<?xml version="1.0" standalone="no"?><!DOCTYPE svg PUBLIC "-//W3C//DTD SVG 1.1//EN" "http://www.w3.org/Graphics/SVG/1.1/DTD/svg11.dtd"><svg t="1607743350592" class="icon" viewBox="0 0 1024 1024" version="1.1" xmlns="http://www.w3.org/2000/svg" p-id="13099" xmlns:xlink="http://www.w3.org/1999/xlink" width="200" height="200"><defs><style type="text/css"></style></defs><path d="M512 409.782857A99.474286 99.474286 0 0 0 415.451429 512 99.474286 99.474286 0 0 0 512 614.217143 99.474286 99.474286 0 0 0 608.548571 512 99.474286 99.474286 0 0 0 512 409.782857z" p-id="13100" fill="#ffffff"></path><path d="M512 0a512 512 0 1 0 512 512A512 512 0 0 0 512 0z m283.428571 552.411429a356.022857 356.022857 0 0 1-56.137142 83.2 304.64 304.64 0 0 1-454.582858 0 356.022857 356.022857 0 0 1-56.137142-83.2 93.44 93.44 0 0 1 0-80.822858 356.022857 356.022857 0 0 1 56.137142-83.2 304.64 304.64 0 0 1 454.582858 0 356.022857 356.022857 0 0 1 56.137142 83.2 93.44 93.44 0 0 1 0 80.822858z" p-id="13101" fill="#ffffff"></path></svg>