<?xml version="1.0" standalone="no"?><!DOCTYPE svg PUBLIC "-//W3C//DTD SVG 1.1//EN" "http://www.w3.org/Graphics/SVG/1.1/DTD/svg11.dtd"><svg t="1626314983744" class="icon" viewBox="0 0 1024 1024" version="1.1" xmlns="http://www.w3.org/2000/svg" p-id="1539" xmlns:xlink="http://www.w3.org/1999/xlink" width="200" height="200"><defs><style type="text/css"></style></defs><path d="M900 89.5H124c-19 0-34.5 15.5-34.5 34.5v776c0 19 15.5 34.5 34.5 34.5h548.6c12.4 0 22.5-10.1 22.5-22.5s-10.1-22.5-22.5-22.5H134.5v-755h755v511.1c0 12.4 10.1 22.5 22.5 22.5s22.5-10.1 22.5-22.5V124c0-19-15.5-34.5-34.5-34.5z" p-id="1540" fill="#ffffff"></path><path d="M621.4 808.4c103.1 0 187-83.9 187-187s-83.9-187-187-187-187 83.9-187 187 83.9 187 187 187z m0-329c78.3 0 142 63.7 142 142s-63.7 142-142 142-142-63.7-142-142 63.7-142 142-142z" p-id="1541" fill="#ffffff"></path><path d="M789.7 757.9c-8.8-8.8-23-8.8-31.8 0s-8.8 23 0 31.8l138.2 138.2c4.4 4.4 10.2 6.6 15.9 6.6s11.5-2.2 15.9-6.6c8.8-8.8 8.8-23 0-31.8L789.7 757.9zM259 227.5h475c12.4 0 22.5-10.1 22.5-22.5s-10.1-22.5-22.5-22.5H259c-12.4 0-22.5 10.1-22.5 22.5s10.1 22.5 22.5 22.5zM519 389.8c0-12.4-10.1-22.5-22.5-22.5H259c-12.4 0-22.5 10.1-22.5 22.5s10.1 22.5 22.5 22.5h237.5c12.4 0 22.5-10.1 22.5-22.5zM259 552.1c-12.4 0-22.5 10.1-22.5 22.5s10.1 22.5 22.5 22.5h114c12.4 0 22.5-10.1 22.5-22.5s-10.1-22.5-22.5-22.5H259zM594.2 606.2c6.3-4.5 12.9-9.7 19-15.2v12.2h61.3v-14c6.6 5.6 13.4 10.4 20.1 14.7 1.6-4.3 5.2-11.5 8.2-15.4-18.1-9.9-39.4-27.6-52-43.7 1.1-2.2 2.3-4.3 3.4-6.6l-14.3-5.2c-12.2 24-33.5 46.2-55.6 59.7 3.1 3.1 7.9 10.1 9.9 13.5z m48.4-48.5c9 10.8 20.1 21.7 31.7 31.4h-59c9.9-9.4 19.2-20 27.3-31.4zM647.4 614.8l-12.9 1.8c2.9 13.3 6.1 30.8 7 42.3l13.6-2.2c-1.2-11.4-4.1-28.4-7.7-41.9z" p-id="1542" fill="#ffffff"></path><path d="M543.6 661.1c6.1-9.7 12-24.4 16.7-40.2v77.8h15.2v-88.4c3.9 8.1 8.2 16.7 10.2 21.9l9.7-11.3c-2.7-5.2-15.4-25.1-19.9-31.4v-6.6H592v-15.6h-16.5v-32.8h-15.2v32.8h-22v15.6h20.8c-4.7 21.9-13.6 47.7-23.3 61.5 2.5 4.3 6.2 11.7 7.8 16.7zM692.8 618.4l-14.7-3.6c-5.6 18.6-16.3 44.5-25.3 61.3h-61.5v14.7h105.4v-14.7h-30.3c9-16.1 19-38.8 26.4-57.7z" p-id="1543" fill="#ffffff"></path><path d="M613.2 618.4l-12.9 3.2c4.7 13.6 9.1 31.2 10.8 42.7l13.4-3.6c-1.6-11.6-6.3-29-11.3-42.3z" p-id="1544" fill="#ffffff"></path></svg>