<?xml version="1.0" standalone="no"?><!DOCTYPE svg PUBLIC "-//W3C//DTD SVG 1.1//EN" "http://www.w3.org/Graphics/SVG/1.1/DTD/svg11.dtd"><svg t="1607560804479" class="icon" viewBox="0 0 1024 1024" version="1.1" xmlns="http://www.w3.org/2000/svg" p-id="26068" xmlns:xlink="http://www.w3.org/1999/xlink" width="200" height="200"><defs><style type="text/css"></style></defs><path d="M585.3 471.2l114.8-114.8c12.8 8.5 27.6 12.8 42.4 12.8 19.5 0 39.1-7.4 54-22.3l73.9-73.9c9-9 9-23.5 0-32.5l-86.8-86.8c-9-9-23.5-9-32.5 0L677 227.6c-26.1 26.1-29.3 66.7-9.5 96.3L552.8 438.7 504 390c21-63 6.5-135.3-43.6-185.4-26.4-26.4-59.8-43.8-96.5-50.2-35.9-6.3-72.3-1.7-105.4 13.1-6.9 3.1-11.8 9.4-13.2 16.8-1.4 7.4 1 15.1 6.4 20.4l55.6 55.6c12.9 12.9 12.9 33.9 0 46.8-12.9 12.9-33.9 12.9-46.8 0l-55.6-55.6c-5.3-5.3-13-7.7-20.4-6.4s-13.7 6.3-16.8 13.2c-14.9 33.1-19.4 69.6-13.1 105.4 6.4 36.7 23.8 70.1 50.2 96.5 35.3 35.3 81.6 52.9 127.9 52.9 19.4 0 38.9-3.1 57.5-9.3l8 8-232.8 232.9c-13.8 13.8-21.4 32.1-21.4 51.6s7.6 37.8 21.4 51.6l10.7 10.7c13.8 13.8 32.1 21.4 51.6 21.4s37.8-7.6 51.6-21.4l232.8-232.8L740.2 854c13.8 13.8 32.1 21.4 51.6 21.4s37.8-7.6 51.6-21.4l10.7-10.7c13.8-13.8 21.4-32.1 21.4-51.6s-7.6-37.8-21.4-51.6L585.3 471.2z m124.3-211l57.6-57.6 54.3 54.3-57.6 57.6c-11.8 11.8-31 11.8-42.9 0L709.6 303c-11.8-11.8-11.8-31 0-42.8zM237.3 427.8c-19.7-19.7-32.7-44.6-37.5-72-2.6-14.9-2.7-30-0.4-44.7l28.5 28.5c30.8 30.8 81 30.8 111.9 0 30.8-30.8 30.8-81 0-111.9l-28.5-28.5c14.7-2.3 29.8-2.2 44.7 0.4 27.4 4.8 52.2 17.7 72 37.5 38.2 38.2 48.6 93.7 31.4 141.4l-80.6 80.6c-47.8 17.3-103.4 6.9-141.5-31.3z m9.5 398.3c-5.1 5.1-11.9 7.9-19.1 7.9s-14-2.8-19.1-7.9l-10.7-10.7c-5.1-5.1-7.9-11.9-7.9-19.1s2.8-14 7.9-19.1l232.8-232.8 48.9 48.9-232.8 232.8z m574.8-15.3l-10.7 10.7c-5.1 5.1-11.9 7.9-19.1 7.9s-14-2.8-19.1-7.9L531.9 580.7c-0.9-1.4-1.9-2.8-3.2-4l-81.4-81.4c-1.2-1.2-2.6-2.3-4-3.2l-9.7-9.7c9.5-6.4 18.4-13.7 26.8-22.1 8.4-8.4 15.7-17.3 22.1-26.8l50.4 50.4c0.9 1.4 1.9 2.8 3.2 4 1.2 1.2 2.6 2.3 4 3.2l281.5 281.5c5.1 5.1 7.9 11.9 7.9 19.1s-2.8 14-7.9 19.1z" p-id="26069" fill="#ffffff"></path></svg>