<?xml version="1.0" standalone="no"?><!DOCTYPE svg PUBLIC "-//W3C//DTD SVG 1.1//EN" "http://www.w3.org/Graphics/SVG/1.1/DTD/svg11.dtd"><svg t="1627348522213" class="icon" viewBox="0 0 1170 1024" version="1.1" xmlns="http://www.w3.org/2000/svg" p-id="1443" xmlns:xlink="http://www.w3.org/1999/xlink" width="228.515625" height="200"><defs><style type="text/css">@font-face { font-family: feedback-iconfont; src: url("//at.alicdn.com/t/font_1031158_1uhr8ri0pk5.eot?#iefix") format("embedded-opentype"), url("//at.alicdn.com/t/font_1031158_1uhr8ri0pk5.woff2") format("woff2"), url("//at.alicdn.com/t/font_1031158_1uhr8ri0pk5.woff") format("woff"), url("//at.alicdn.com/t/font_1031158_1uhr8ri0pk5.ttf") format("truetype"), url("//at.alicdn.com/t/font_1031158_1uhr8ri0pk5.svg#iconfont") format("svg"); }
</style></defs><path d="M154.331429 740.717714H74.386286v228.790857c0 21.211429 15.945143 42.496 42.569143 42.496h260.681142v-79.725714H154.258286v-191.561143z m0-648.923428h223.378285V11.995429H117.028571a41.984 41.984 0 0 0-42.569142 42.496v239.396571H154.331429V91.794286z m861.622857 840.411428h-223.378286v79.798857H1053.257143c21.211429 0 42.569143-15.945143 42.569143-42.496v-228.790857H1015.954286v191.488z m0-643.657143h79.872v-234.057142A41.984 41.984 0 0 0 1053.257143 11.995429h-260.681143v79.725714h223.451429v196.827428zM53.248 469.430857h1063.936V549.302857H53.174857V469.577143z" fill="#3295FA" p-id="1444"></path></svg>